<svg height="43" overflow="hidden" width="41" xmlns="http://www.w3.org/2000/svg" xmlns:xlink="http://www.w3.org/1999/xlink"><clipPath id="a"><path d="m708 130h41v43h-41z"/></clipPath><clipPath id="b"><path d="m709 131h40v42h-40z"/></clipPath><clipPath id="c"><path d="m709 131h40v42h-40z"/></clipPath><clipPath id="d"><path d="m709 131h40v42h-40z"/></clipPath><g clip-path="url(#a)" transform="translate(-708 -130)"><g clip-path="url(#b)"><g clip-path="url(#c)"><g clip-path="url(#d)"><path d="m33.7705 39.6723h-31.47542c-1.11475 0-1.967211-.8526-1.967211-1.9674v-35.40982c0-1.11475.852461-1.967211 1.967211-1.967211h31.47542c1.1147 0 1.9672.852461 1.9672 1.967211v35.40982c0 1.1148-.8525 1.9674-1.9672 1.9674z" fill="#455a64" transform="matrix(1 0 0 1.05 709 131)"/><path d="m33.7705.327869h-31.47542c-1.11475 0-1.967211.852461-1.967211 1.967211v4.59015h35.409831v-4.59015c0-1.11475-.8525-1.967211-1.9672-1.967211z" fill="#b0bec5" transform="matrix(1 0 0 1.05 709 131)"/><path d="m37.7049 39.6723h-31.47541c-1.11472 0-1.96719-.8526-1.96719-1.9674v-35.40982c0-1.11475.85247-1.967211 1.96719-1.967211h31.47541c1.1148 0 1.9674.852461 1.9674 1.967211v35.40982c0 1.1148-.8526 1.9674-1.9674 1.9674z" fill="#546e7a" transform="matrix(1 0 0 1.05 709 131)"/><path d="m37.7049.327869h-31.47541c-1.11472 0-1.96719.852461-1.96719 1.967211v4.59015h35.41v-4.59015c0-1.11475-.8526-1.967211-1.9674-1.967211z" fill="#cfd8dc" transform="matrix(1 0 0 1.05 709 131)"/><path d="m9.83605 5.2459h-1.96718c-.39348 0-.65574-.26231-.65574-.65574v-1.96721c0-.39344.26226-.65574.65574-.65574h1.96718c.39345 0 .65575.2623.65575.65574v1.96721c0 .39343-.2623.65574-.65575.65574zm6.55735 0h-1.9672c-.3934 0-.6557-.26231-.6557-.65574v-1.96721c0-.39344.2623-.65574.6557-.65574h1.9672c.3935 0 .6558.2623.6558.65574v1.96721c0 .39343-.2623.65574-.6558.65574zm6.5574 0h-1.9672c-.3934 0-.6557-.26231-.6557-.65574v-1.96721c0-.39344.2623-.65574.6557-.65574h1.9672c.3935 0 .6558.2623.6558.65574v1.96721c0 .39343-.2623.65574-.6558.65574zm6.5574 0h-1.9672c-.3935 0-.6558-.26231-.6558-.65574v-1.96721c0-.39344.2623-.65574.6558-.65574h1.9672c.3934 0 .6557.2623.6557.65574v1.96721c0 .39343-.2623.65574-.6557.65574zm6.5574 0h-1.9672c-.3935 0-.6558-.26231-.6558-.65574v-1.96721c0-.39344.2623-.65574.6558-.65574h1.9672c.3934 0 .6557.2623.6557.65574v1.96721c0 .39343-.2623.65574-.6557.65574z" fill="#455a64" transform="matrix(1 0 0 1.05 709 131)"/><path d="m7.54098 31.8033h3.27872v7.869h-3.27872zm3.27872 0h3.2787v7.869h-3.2787z" fill="#cfd8dc" transform="matrix(1 0 0 1.05 709 131)"/><path d="m9.5082 31.8033h2.6229v3.9344h-2.6229z" fill="#455a64" transform="matrix(1 0 0 1.05 709 131)"/><path d="m14.0984 31.8033h3.2786v7.869h-3.2786zm3.2786 0h3.2787v7.869h-3.2787z" fill="#cfd8dc" transform="matrix(1 0 0 1.05 709 131)"/><path d="m16.0656 31.8033h2.6229v3.9344h-2.6229z" fill="#455a64" transform="matrix(1 0 0 1.05 709 131)"/><path d="m23.2787 31.8033h3.2787v7.869h-3.2787zm3.2787 0h3.2787v7.869h-3.2787z" fill="#cfd8dc" transform="matrix(1 0 0 1.05 709 131)"/><path d="m25.2459 31.8033h2.623v3.9344h-2.623z" fill="#455a64" transform="matrix(1 0 0 1.05 709 131)"/><path d="m29.8361 31.8033h3.2787v7.869h-3.2787zm3.2787 0h3.2786v7.869h-3.2786z" fill="#cfd8dc" transform="matrix(1 0 0 1.05 709 131)"/><path d="m31.8033 31.8033h2.6229v3.9344h-2.6229z" fill="#455a64" transform="matrix(1 0 0 1.05 709 131)"/><g fill="#26c6da"><path d="m7.54098 6.88523h28.85242v17.70497h-28.85242z" transform="matrix(1 0 0 1.05 709 131)"/><path d="m33.7705 28.1967c0 .7243.5872 1.3115 1.3115 1.3115s1.3114-.5872 1.3114-1.3115-.5871-1.3115-1.3114-1.3115-1.3115.5872-1.3115 1.3115z" transform="matrix(1 0 0 1.05 709 131)"/><path d="m28.5246 28.1967c0 .7243.5872 1.3115 1.3115 1.3115s1.3114-.5872 1.3114-1.3115-.5871-1.3115-1.3114-1.3115-1.3115.5872-1.3115 1.3115z" transform="matrix(1 0 0 1.05 709 131)"/></g><path d="m29.0492 11.1475c-.2623-.2623-.6558-.3934-1.0492-.3278l-9.8361 1.3114c-.6557.0656-1.1147.6558-1.1147 1.3115v8.9836c-.3935-.0655-.8525-.1311-1.3115-.1311-2.1639 0-3.9344.8524-3.9344 1.9672 0 1.1147 1.7705 1.9672 3.9344 1.9672s3.9344-.8525 3.9344-1.9672v-9.6393l7.2131-.9837v7.1476c-.3934-.0656-.8524-.1312-1.3114-.1312-2.164 0-3.9345.8525-3.9345 1.9673 0 1.1147 1.7705 1.9672 3.9345 1.9672 2.1639 0 3.9344-.8525 3.9344-1.9672v-10.4919c0-.3934-.1312-.7213-.459-.9836z" fill="#cfd8dc" transform="matrix(1 0 0 1.05 709 131)"/></g></g></g></g></svg>